<mxfile host="app.diagrams.net" modified="2023-05-28T16:35:35.853Z" agent="Mozilla/5.0 (Windows NT 10.0; Win64; x64) AppleWebKit/537.36 (KHTML, like Gecko) Chrome/113.0.0.0 Safari/537.36" version="21.3.5" etag="S15K1OQw-6FeRbdsJqIb" type="github">
  <diagram name="Page-1" id="rwFjfPuICtTgML6xBmhZ">
    <mxGraphModel>
      <root>
        <mxCell id="0" />
        <mxCell id="1" parent="0" />
      </root>
    </mxGraphModel>
  </diagram>
</mxfile>
